<svg width="500" height="500" viewBox="0 0 500 500" fill="none" xmlns="http://www.w3.org/2000/svg">
<g clip-path="url(#clip0_402_2)">
<rect width="500" height="500" rx="250" fill="white"/>
<circle cx="250" cy="250" r="250" fill="url(#paint0_linear_402_2)"/>
<g filter="url(#filter0_d_402_2)">
<path d="M224.673 357.463C197.102 353.869 169.957 338.633 154.331 322.499C136.216 303.794 130.145 279.978 133.863 261.178C144.783 205.941 230.051 180.16 262.671 158.458C284.506 143.932 289.476 136.356 294.766 128.367C305.004 112.904 308.079 94.0093 290.695 91.0641C274.101 88.2523 258.671 106.397 251.382 119.081C244.827 130.49 240.121 142.1 241.887 160.309C242.682 168.489 264.267 396.795 264.657 400.339C268.557 435.753 240.254 447.801 212.418 447.958C152.306 448.294 137.045 402.031 165.242 387.422C186.95 376.173 215.912 389.977 212.433 411.276C209.352 430.14 184.003 428.495 177.575 427.498C186.362 441.461 260.586 454.824 254.237 394.644C253.345 386.186 233.703 171.695 233.183 166.888C229.287 130.903 230.657 102.808 258.54 72.312C268.835 61.0541 284.125 54.5393 291.209 56.1838C292.767 56.5453 294.3 57.1081 295.465 58.1636C313.412 74.4061 316.501 107.226 312.784 125.602C308.978 144.416 306.069 163.983 278.404 184.687C267.696 192.699 235.679 209.614 217.319 219.335C191.523 232.994 172.609 245.239 161.579 261.036C149.183 278.793 145.316 302.166 167.835 325.166C180.807 338.183 203.302 348.577 222.831 350.458C277.13 355.69 294.713 337.358 297.157 315.077C301.184 278.388 242.086 259.236 215.098 282.353C199.451 295.756 204.43 311.732 213.447 319.913C216.542 322.721 220.077 324.962 223.486 326.337C224.722 326.835 227.618 328.116 226.641 329.538C225.828 330.721 224.453 330.672 223.216 330.453C207.701 327.711 191.344 315.205 188.729 295.916C184.92 267.803 220.822 237.976 267.553 247.438C298.146 253.631 325.134 275.697 319.454 311.909C314.585 342.947 277.288 364.324 224.673 357.463V357.463Z" fill="#89D3B8"/>
</g>
</g>
<defs>
<filter id="filter0_d_402_2" x="128.819" y="55.9316" width="195.396" height="400.028" filterUnits="userSpaceOnUse" color-interpolation-filters="sRGB">
<feFlood flood-opacity="0" result="BackgroundImageFix"/>
<feColorMatrix in="SourceAlpha" type="matrix" values="0 0 0 0 0 0 0 0 0 0 0 0 0 0 0 0 0 0 127 0" result="hardAlpha"/>
<feOffset dy="4"/>
<feGaussianBlur stdDeviation="2"/>
<feColorMatrix type="matrix" values="0 0 0 0 0.615686 0 0 0 0 0.956863 0 0 0 0 0.827451 0 0 0 0.25 0"/>
<feBlend mode="normal" in2="BackgroundImageFix" result="effect1_dropShadow_402_2"/>
<feBlend mode="normal" in="SourceGraphic" in2="effect1_dropShadow_402_2" result="shape"/>
</filter>
<linearGradient id="paint0_linear_402_2" x1="47.5" y1="52.5" x2="446.667" y2="478.333" gradientUnits="userSpaceOnUse">
<stop stop-color="#042B65"/>
<stop offset="1" stop-color="#040D21"/>
</linearGradient>
<clipPath id="clip0_402_2">
<rect width="500" height="500" rx="250" fill="white"/>
</clipPath>
</defs>
</svg>
